# xmcd
#
# Track frame offsets: 
#        150
#        11678
#        22293
#        34041
#        48336
#        66631
#        77217
#        88207
#        100943
#        111918
#        131109
#        144367
#        157233
#        170934
#        185082
#
# Disc length: 2736 seconds
#
# Revision: 0
# Processed by: cddbd v1.5.2PL0 Copyright (c) Steve Scherf et al.
# Submitted via: ExactAudioCopy v0.99pb3
#
DISCID=e50aae0f
DTITLE=charles asnavour - charles asnavour and firend
DYEAR=1900
DGENRE=Ballad
TTITLE0=she
TTITLE1=donne les 16 ans
TTITLE2=j´aime paris au mois de mai
TTITLE3=emanuell- pierre bachelet
TTITLE4=parole parole- alain delon and dalida
TTITLE5=les comediens
TTITLE6=jezebel
TTITLE7=je t´appartiens- gilbert becaud
TTITLE8=la  marie vison- ives montand
TTITLE9=let´s turn out the light
TTITLE10=sunny- ricahd anthony
TTITLE11=je suis snob- boris vian
TTITLE12=plus beau que tes yeux
TTITLE13=tu etait tres jolie
TTITLE14=les femmes- tommy williqams orchesta
EXTD=
EXTT0=
EXTT1=
EXTT2=
EXTT3=
EXTT4=
EXTT5=
EXTT6=
EXTT7=
EXTT8=
EXTT9=
EXTT10=
EXTT11=
EXTT12=
EXTT13=
EXTT14=
PLAYORDER=
